<?xml version="1.0" standalone="no"?>
<!DOCTYPE svg PUBLIC "-//W3C//DTD SVG 20010904//EN"
 "http://www.w3.org/TR/2001/REC-SVG-20010904/DTD/svg10.dtd">
<svg version="1.0" xmlns="http://www.w3.org/2000/svg"
 width="512.000000pt" height="210.000000pt" viewBox="0 0 512.000000 210.000000"
 preserveAspectRatio="xMidYMid meet">

<g transform="translate(0.000000,210.000000) scale(0.100000,-0.100000)"
fill="#000000" stroke="none">
<path d="M310 1315 l0 -385 80 0 79 0 3 144 3 144 95 -134 c52 -73 100 -133
105 -134 6 0 53 59 105 132 l95 132 5 -139 5 -140 78 -3 77 -3 0 388 c0 325
-2 385 -13 373 -8 -8 -89 -120 -182 -248 -92 -129 -171 -230 -175 -225 -4 4
-85 115 -179 246 -95 130 -174 237 -176 237 -3 0 -5 -173 -5 -385z"/>
<path d="M1090 1305 l0 -385 228 2 227 3 0 75 0 75 -147 3 -148 3 0 74 0 75
110 0 110 0 0 80 0 80 -110 0 -110 0 0 75 0 75 150 0 150 0 0 75 0 75 -230 0
-230 0 0 -385z"/>
<path d="M2385 1677 c-101 -34 -189 -107 -233 -193 -48 -95 -52 -220 -11 -330
31 -81 121 -172 204 -204 124 -48 291 -24 379 53 l37 32 -55 60 -54 60 -24
-22 c-57 -53 -151 -67 -224 -34 -73 33 -134 126 -134 206 0 79 58 168 133 206
58 30 146 23 205 -16 l43 -28 55 54 55 54 -37 32 c-76 67 -244 101 -339 70z"/>
<path d="M2913 1327 c-89 -199 -165 -370 -168 -379 -6 -16 1 -18 78 -18 l86 0
25 55 25 55 124 0 125 0 22 -55 22 -55 85 0 c76 0 85 2 81 18 -10 33 -331 742
-337 742 -3 0 -79 -163 -168 -363z m223 -144 c-2 -2 -29 -3 -59 -1 l-55 3 30
65 30 65 29 -64 c16 -35 28 -66 25 -68z"/>
<path d="M1570 1305 l0 -375 80 0 79 0 3 152 3 153 99 -153 98 -152 94 0 c52
0 94 3 94 6 0 3 -36 61 -80 130 -44 68 -80 127 -80 132 0 4 15 17 34 29 52 34
86 111 86 197 0 88 -22 139 -81 189 -63 54 -117 67 -286 67 l-143 0 0 -375z
m272 215 c77 -22 102 -102 49 -159 -27 -29 -34 -31 -95 -31 l-66 0 0 100 0
100 38 0 c20 0 54 -5 74 -10z"/>
<path d="M3442 1309 l3 -374 93 -3 c241 -7 380 57 450 206 24 51 27 69 27 167
0 104 -2 114 -33 177 -38 78 -82 120 -172 162 -62 29 -72 31 -218 34 l-152 4
2 -373z m306 192 c75 -39 112 -104 112 -199 0 -120 -77 -203 -195 -210 l-65
-4 0 222 0 223 56 -7 c30 -3 72 -15 92 -25z"/>
<path d="M4440 1633 c-109 -11 -234 -79 -291 -159 -123 -170 -108 -386 35
-530 123 -122 307 -153 463 -76 98 47 194 166 209 256 3 23 11 47 16 53 6 7 7
25 4 40 -4 16 -11 53 -15 83 -16 106 -94 221 -185 275 -46 27 -159 66 -185 63
-9 0 -32 -3 -51 -5z m153 -143 c56 -28 106 -80 138 -142 30 -59 31 -174 2
-238 -99 -217 -402 -228 -518 -19 -27 48 -30 63 -30 139 0 77 3 90 31 140 33
58 101 118 156 137 56 19 166 11 221 -17z"/>
<path d="M4351 1455 c-87 -48 -152 -177 -107 -214 18 -15 31 2 40 52 13 69
101 137 179 137 10 0 17 8 17 20 0 18 -6 20 -52 19 -29 -1 -64 -7 -77 -14z"/>
<path d="M4113 878 c-33 -37 -263 -375 -263 -387 0 -6 -5 -11 -10 -11 -15 0
28 -44 74 -74 65 -43 74 -39 157 81 174 252 208 305 202 319 -6 16 -115 94
-131 94 -5 0 -18 -10 -29 -22z"/>
<path d="M320 620 l0 -232 103 4 c95 3 108 6 152 33 68 42 99 104 99 194 -2
149 -82 222 -256 229 l-98 4 0 -232z m200 111 c32 -22 60 -77 60 -116 0 -68
-66 -135 -132 -135 l-28 0 0 141 0 141 38 -6 c20 -4 48 -15 62 -25z"/>
<path d="M690 620 l0 -230 140 0 140 0 0 45 0 45 -90 0 -90 0 0 45 0 45 65 0
65 0 0 45 0 45 -65 0 -65 0 0 45 0 45 90 0 90 0 0 50 0 50 -140 0 -140 0 0
-230z"/>
<path d="M1120 805 l0 -45 55 0 55 0 0 -185 0 -185 50 0 50 0 0 185 0 185 55
0 55 0 0 45 0 45 -160 0 -160 0 0 -45z"/>
<path d="M1450 620 l0 -230 50 0 50 0 0 93 0 92 61 -92 62 -93 113 0 114 0 14
35 15 35 75 0 76 0 14 -35 c14 -34 17 -35 66 -35 46 0 51 2 45 19 -13 43 -191
427 -199 432 -4 2 -53 -96 -108 -218 -56 -123 -103 -223 -107 -223 -3 1 -27
35 -53 77 l-47 75 28 24 c39 33 54 75 49 135 -4 40 -12 57 -39 85 -41 43 -81
54 -191 54 l-88 0 0 -230z m201 114 c45 -40 8 -104 -61 -104 l-40 0 0 66 0 67
41 -6 c22 -3 49 -13 60 -23z m389 -186 c0 -5 -16 -8 -35 -8 -19 0 -35 2 -35 4
0 2 7 21 16 42 l16 39 19 -35 c10 -19 18 -38 19 -42z"/>
<path d="M2230 621 l0 -231 105 0 c117 0 150 10 183 57 42 61 35 142 -18 186
-27 23 -29 28 -19 56 14 40 -2 88 -42 127 -28 27 -37 29 -120 32 l-89 4 0
-231z m148 127 c17 -17 15 -44 -4 -62 -29 -30 -44 -20 -44 29 0 37 3 45 18 45
10 0 23 -5 30 -12z m52 -178 c43 -43 14 -90 -56 -90 l-44 0 0 55 0 55 40 0
c27 0 47 -7 60 -20z"/>
<path d="M2702 809 c-11 -24 -56 -125 -101 -223 -44 -99 -81 -183 -81 -188 0
-4 22 -8 50 -8 47 0 50 2 64 35 l15 35 75 0 76 0 14 -35 c14 -33 17 -35 65
-35 28 0 51 3 51 7 0 10 -192 437 -201 447 -5 5 -17 -10 -27 -35z m58 -261 c0
-5 -16 -8 -35 -8 -19 0 -35 2 -35 4 0 2 7 21 16 42 l16 39 19 -35 c10 -19 18
-38 19 -42z"/>
<path d="M3130 705 c0 -164 -8 -194 -61 -215 -24 -11 -38 -11 -62 -2 -17 6
-31 11 -32 9 -43 -74 -44 -76 -28 -88 8 -7 43 -15 77 -17 102 -7 169 39 195
133 12 44 14 190 5 273 l-7 52 -43 0 -44 0 0 -145z"/>
<path d="M3397 835 c-117 -43 -180 -163 -147 -279 16 -57 72 -123 124 -147 49
-22 152 -25 199 -6 88 37 140 117 140 212 0 162 -163 276 -316 220z m173 -121
c64 -58 64 -144 -1 -198 -84 -71 -214 -21 -226 88 -10 83 49 145 139 146 41 0
54 -5 88 -36z"/>
</g>
</svg>
