<svg xmlns="http://www.w3.org/2000/svg" xmlns:xlink="http://www.w3.org/1999/xlink" width="500" zoomAndPan="magnify" viewBox="0 0 375 153.750002" height="205" preserveAspectRatio="xMidYMid meet" version="1.0"><defs><clipPath id="4443cffd41"><path d="M 0.304688 0 L 374.695312 0 L 374.695312 153.5 L 0.304688 153.5 Z M 0.304688 0 " clip-rule="nonzero"/></clipPath></defs><g clip-path="url(#4443cffd41)"><path fill="#ffffff" d="M 0.304688 0 L 374.695312 0 L 374.695312 153.5 L 0.304688 153.5 Z M 0.304688 0 " fill-opacity="1" fill-rule="nonzero"/><path fill="#363636" d="M 0.304688 0 L 374.695312 0 L 374.695312 153.5 L 0.304688 153.5 Z M 0.304688 0 " fill-opacity="1" fill-rule="nonzero"/></g><path fill="#ffffff" d="M 23.410156 57.417969 L 23.410156 85.496094 L 35.007812 85.496094 L 35.226562 74.996094 L 35.445312 64.492188 L 42.371094 74.265625 C 46.164062 79.589844 49.664062 83.964844 50.03125 84.039062 C 50.46875 84.039062 53.894531 79.734375 57.6875 74.410156 L 64.617188 64.785156 L 64.980469 74.921875 L 65.34375 85.132812 L 71.035156 85.351562 L 76.648438 85.570312 L 76.648438 57.273438 C 76.648438 33.570312 76.503906 29.195312 75.699219 30.070312 C 75.117188 30.652344 69.210938 38.820312 62.429688 48.15625 C 55.71875 57.566406 49.957031 64.929688 49.664062 64.566406 C 49.375 64.273438 43.464844 56.179688 36.613281 46.625 C 29.683594 37.144531 23.921875 29.339844 23.777344 29.339844 C 23.558594 29.339844 23.410156 41.957031 23.410156 57.417969 Z M 23.410156 57.417969 " fill-opacity="1" fill-rule="nonzero"/><path fill="#ffffff" d="M 80.296875 58.148438 L 80.296875 86.226562 L 96.921875 86.078125 L 113.476562 85.859375 L 113.476562 74.921875 L 102.757812 74.703125 L 91.964844 74.484375 L 91.964844 63.617188 L 108.007812 63.617188 L 108.007812 51.949219 L 91.964844 51.949219 L 91.964844 41.011719 L 113.84375 41.011719 L 113.84375 30.070312 L 80.296875 30.070312 Z M 80.296875 58.148438 " fill-opacity="1" fill-rule="nonzero"/><path fill="#ffffff" d="M 174.738281 31.019531 C 167.371094 33.5 160.953125 38.820312 157.746094 45.09375 C 154.246094 52.023438 153.953125 61.136719 156.941406 69.160156 C 159.203125 75.066406 165.765625 81.703125 171.820312 84.039062 C 180.863281 87.539062 193.042969 85.789062 199.460938 80.171875 L 202.160156 77.839844 L 198.148438 73.464844 L 194.210938 69.085938 L 192.460938 70.691406 C 188.300781 74.558594 181.445312 75.578125 176.125 73.171875 C 170.800781 70.765625 166.351562 63.984375 166.351562 58.148438 C 166.351562 52.386719 170.582031 45.894531 176.050781 43.125 C 180.28125 40.9375 186.699219 41.449219 191 44.292969 L 194.136719 46.332031 L 202.160156 38.457031 L 199.460938 36.125 C 193.917969 31.238281 181.664062 28.757812 174.738281 31.019531 Z M 174.738281 31.019531 " fill-opacity="1" fill-rule="nonzero"/><path fill="#ffffff" d="M 213.242188 56.542969 C 206.753906 71.054688 201.210938 83.527344 200.992188 84.183594 C 200.554688 85.351562 201.066406 85.496094 206.679688 85.496094 L 212.953125 85.496094 L 214.773438 81.484375 L 216.597656 77.472656 L 234.757812 77.472656 L 236.363281 81.484375 L 237.964844 85.496094 L 244.164062 85.496094 C 249.707031 85.496094 250.363281 85.351562 250.074219 84.183594 C 249.34375 81.777344 225.933594 30.070312 225.496094 30.070312 C 225.277344 30.070312 219.734375 41.957031 213.242188 56.542969 Z M 229.507812 67.046875 C 229.359375 67.191406 227.390625 67.265625 225.203125 67.117188 L 221.191406 66.898438 L 223.378906 62.160156 L 225.570312 57.417969 L 227.683594 62.085938 C 228.851562 64.640625 229.726562 66.898438 229.507812 67.046875 Z M 229.507812 67.046875 " fill-opacity="1" fill-rule="nonzero"/><path fill="#ffffff" d="M 115.300781 58.148438 L 115.300781 85.496094 L 126.898438 85.496094 L 127.117188 74.410156 L 127.335938 63.253906 L 134.554688 74.410156 L 141.699219 85.496094 L 148.554688 85.496094 C 152.347656 85.496094 155.410156 85.277344 155.410156 85.058594 C 155.410156 84.839844 152.785156 80.609375 149.578125 75.578125 C 146.367188 70.617188 143.742188 66.316406 143.742188 65.953125 C 143.742188 65.660156 144.835938 64.710938 146.222656 63.835938 C 150.015625 61.355469 152.496094 55.742188 152.496094 49.46875 C 152.496094 43.050781 150.890625 39.332031 146.585938 35.6875 C 141.992188 31.75 138.054688 30.800781 125.730469 30.800781 L 115.300781 30.800781 Z M 135.136719 42.46875 C 140.753906 44.074219 142.578125 49.90625 138.710938 54.0625 C 136.742188 56.179688 136.230469 56.324219 131.78125 56.324219 L 126.96875 56.324219 L 126.96875 41.738281 L 129.742188 41.738281 C 131.199219 41.738281 133.679688 42.105469 135.136719 42.46875 Z M 135.136719 42.46875 " fill-opacity="1" fill-rule="nonzero"/><path fill="#ffffff" d="M 251.824219 57.855469 L 252.042969 85.132812 L 258.824219 85.351562 C 276.398438 85.859375 286.535156 81.195312 291.640625 70.328125 C 293.390625 66.609375 293.609375 65.296875 293.609375 58.148438 C 293.609375 50.5625 293.464844 49.835938 291.203125 45.238281 C 288.433594 39.550781 285.222656 36.488281 278.660156 33.425781 C 274.140625 31.3125 273.410156 31.164062 262.761719 30.945312 L 251.675781 30.652344 Z M 274.140625 43.855469 C 279.609375 46.699219 282.308594 51.4375 282.308594 58.367188 C 282.308594 67.117188 276.691406 73.171875 268.085938 73.683594 L 263.34375 73.972656 L 263.34375 41.519531 L 267.429688 42.03125 C 269.617188 42.25 272.679688 43.125 274.140625 43.855469 Z M 274.140625 43.855469 " fill-opacity="1" fill-rule="nonzero"/><path fill="#ffffff" d="M 324.605469 34.226562 C 316.65625 35.03125 307.539062 39.988281 303.382812 45.824219 C 294.414062 58.222656 295.507812 73.972656 305.9375 84.476562 C 314.90625 93.371094 328.324219 95.632812 339.703125 90.019531 C 346.847656 86.589844 353.847656 77.910156 354.945312 71.347656 C 355.164062 69.671875 355.746094 67.921875 356.109375 67.484375 C 356.546875 66.972656 356.621094 65.660156 356.402344 64.566406 C 356.109375 63.398438 355.601562 60.699219 355.308594 58.511719 C 354.140625 50.78125 348.453125 42.394531 341.816406 38.457031 C 338.460938 36.488281 330.21875 33.644531 328.324219 33.863281 C 327.667969 33.863281 325.992188 34.082031 324.605469 34.226562 Z M 335.761719 44.65625 C 339.847656 46.699219 343.492188 50.492188 345.828125 55.011719 C 348.015625 59.316406 348.089844 67.703125 345.972656 72.371094 C 338.753906 88.195312 316.65625 88.996094 308.195312 73.753906 C 306.226562 70.253906 306.007812 69.160156 306.007812 63.617188 C 306.007812 58.003906 306.226562 57.054688 308.269531 53.40625 C 310.675781 49.179688 315.636719 44.800781 319.644531 43.417969 C 323.730469 42.03125 331.753906 42.613281 335.761719 44.65625 Z M 335.761719 44.65625 " fill-opacity="1" fill-rule="nonzero"/><path fill="#ffffff" d="M 318.113281 47.207031 C 311.769531 50.710938 307.03125 60.117188 310.3125 62.816406 C 311.625 63.910156 312.570312 62.667969 313.226562 59.023438 C 314.175781 53.992188 320.59375 49.03125 326.28125 49.03125 C 327.011719 49.03125 327.523438 48.449219 327.523438 47.574219 C 327.523438 46.261719 327.085938 46.113281 323.730469 46.1875 C 321.613281 46.261719 319.0625 46.699219 318.113281 47.207031 Z M 318.113281 47.207031 " fill-opacity="1" fill-rule="nonzero"/><path fill="#ffffff" d="M 300.757812 89.289062 C 298.351562 91.988281 281.578125 116.636719 281.578125 117.511719 C 281.578125 117.949219 281.210938 118.3125 280.847656 118.3125 C 279.753906 118.3125 282.890625 121.523438 286.246094 123.710938 C 290.984375 126.847656 291.640625 126.554688 297.695312 117.804688 C 310.382812 99.425781 312.863281 95.558594 312.425781 94.539062 C 311.988281 93.371094 304.039062 87.683594 302.871094 87.683594 C 302.507812 87.683594 301.558594 88.414062 300.757812 89.289062 Z M 300.757812 89.289062 " fill-opacity="1" fill-rule="nonzero"/><path fill="#ffffff" d="M 24.140625 108.105469 L 24.140625 125.023438 L 31.652344 124.730469 C 38.582031 124.511719 39.527344 124.292969 42.738281 122.324219 C 47.695312 119.261719 49.957031 114.742188 49.957031 108.175781 C 49.8125 97.3125 43.976562 91.988281 31.289062 91.476562 L 24.140625 91.183594 Z M 38.726562 100.007812 C 41.058594 101.613281 43.101562 105.625 43.101562 108.46875 C 43.101562 113.429688 38.289062 118.3125 33.476562 118.3125 L 31.433594 118.3125 L 31.433594 97.75 L 34.203125 98.1875 C 35.664062 98.476562 37.707031 99.28125 38.726562 100.007812 Z M 38.726562 100.007812 " fill-opacity="1" fill-rule="nonzero"/><path fill="#ffffff" d="M 51.125 108.105469 L 51.125 124.878906 L 71.542969 124.878906 L 71.542969 118.3125 L 58.417969 118.3125 L 58.417969 111.75 L 67.898438 111.75 L 67.898438 105.1875 L 58.417969 105.1875 L 58.417969 98.625 L 71.542969 98.625 L 71.542969 91.332031 L 51.125 91.332031 Z M 51.125 108.105469 " fill-opacity="1" fill-rule="nonzero"/><path fill="#ffffff" d="M 82.484375 94.613281 L 82.484375 97.894531 L 90.503906 97.894531 L 90.503906 124.878906 L 97.796875 124.878906 L 97.796875 97.894531 L 105.820312 97.894531 L 105.820312 91.332031 L 82.484375 91.332031 Z M 82.484375 94.613281 " fill-opacity="1" fill-rule="nonzero"/><path fill="#ffffff" d="M 106.550781 108.105469 L 106.550781 124.878906 L 113.84375 124.878906 L 113.84375 111.386719 L 118.292969 118.09375 L 122.8125 124.878906 L 139.367188 124.878906 L 140.386719 122.324219 L 141.480469 119.773438 L 152.496094 119.773438 L 153.515625 122.324219 C 154.535156 124.804688 154.753906 124.878906 158.328125 124.878906 C 161.683594 124.878906 162.046875 124.730469 161.609375 123.492188 C 160.664062 120.355469 147.679688 92.351562 147.097656 91.988281 C 146.804688 91.839844 143.234375 98.988281 139.222656 107.886719 C 135.136719 116.855469 131.710938 124.148438 131.417969 124.148438 C 131.199219 124.074219 129.449219 121.597656 127.554688 118.53125 L 124.125 113.0625 L 126.167969 111.3125 C 129.011719 108.90625 130.105469 105.84375 129.742188 101.46875 C 129.449219 98.550781 128.867188 97.3125 126.898438 95.269531 C 123.90625 92.132812 120.988281 91.332031 112.96875 91.332031 L 106.550781 91.332031 Z M 121.207031 99.789062 C 124.488281 102.707031 121.792969 107.375 116.757812 107.375 L 113.84375 107.375 L 113.84375 97.675781 L 116.832031 98.113281 C 118.4375 98.332031 120.40625 99.0625 121.207031 99.789062 Z M 149.578125 113.355469 C 149.578125 113.71875 148.410156 113.9375 147.023438 113.9375 C 145.640625 113.9375 144.472656 113.792969 144.472656 113.648438 C 144.472656 113.5 144.984375 112.113281 145.640625 110.582031 L 146.804688 107.738281 L 148.191406 110.292969 C 148.921875 111.675781 149.503906 113.0625 149.578125 113.355469 Z M 149.578125 113.355469 " fill-opacity="1" fill-rule="nonzero"/><path fill="#ffffff" d="M 163.433594 108.03125 L 163.433594 124.878906 L 171.089844 124.878906 C 179.625 124.878906 182.03125 124.148438 184.4375 120.71875 C 187.5 116.273438 186.988281 110.363281 183.125 107.15625 C 181.15625 105.480469 181.007812 105.113281 181.738281 103.070312 C 182.757812 100.15625 181.59375 96.65625 178.675781 93.808594 C 176.632812 91.839844 175.976562 91.695312 169.925781 91.476562 L 163.433594 91.183594 Z M 174.226562 98.769531 C 175.46875 100.007812 175.320312 101.976562 173.933594 103.289062 C 171.820312 105.480469 170.726562 104.75 170.726562 101.175781 C 170.726562 98.476562 170.945312 97.894531 172.039062 97.894531 C 172.769531 97.894531 173.714844 98.257812 174.226562 98.769531 Z M 178.019531 111.75 C 181.15625 114.886719 179.039062 118.3125 173.933594 118.3125 L 170.726562 118.3125 L 170.726562 110.292969 L 173.644531 110.292969 C 175.613281 110.292969 177.070312 110.800781 178.019531 111.75 Z M 178.019531 111.75 " fill-opacity="1" fill-rule="nonzero"/><path fill="#ffffff" d="M 197.855469 94.320312 C 197.054688 96.070312 193.773438 103.4375 190.488281 110.582031 C 187.28125 117.804688 184.582031 123.929688 184.582031 124.292969 C 184.582031 124.585938 186.1875 124.878906 188.230469 124.878906 C 191.65625 124.878906 191.875 124.730469 192.898438 122.324219 L 193.992188 119.773438 L 205.003906 119.773438 L 206.023438 122.324219 C 207.042969 124.730469 207.261719 124.878906 210.765625 124.878906 C 212.804688 124.878906 214.484375 124.660156 214.484375 124.367188 C 214.484375 123.636719 200.480469 92.496094 199.824219 91.769531 C 199.460938 91.402344 198.585938 92.496094 197.855469 94.320312 Z M 202.085938 113.355469 C 202.085938 113.71875 200.917969 113.9375 199.53125 113.9375 C 198.148438 113.9375 196.980469 113.792969 196.980469 113.648438 C 196.980469 113.5 197.492188 112.113281 198.148438 110.582031 L 199.3125 107.738281 L 200.699219 110.292969 C 201.429688 111.675781 202.011719 113.0625 202.085938 113.355469 Z M 202.085938 113.355469 " fill-opacity="1" fill-rule="nonzero"/><path fill="#ffffff" d="M 229.070312 101.90625 C 229.070312 113.867188 228.484375 116.054688 224.621094 117.585938 C 222.871094 118.386719 221.847656 118.386719 220.097656 117.730469 C 218.859375 117.292969 217.839844 116.929688 217.765625 117.074219 C 214.628906 122.472656 214.554688 122.617188 215.722656 123.492188 C 216.308594 124.003906 218.859375 124.585938 221.339844 124.730469 C 228.777344 125.242188 233.664062 121.886719 235.558594 115.03125 C 236.433594 111.824219 236.582031 101.175781 235.925781 95.121094 L 235.414062 91.332031 L 229.070312 91.332031 Z M 229.070312 101.90625 " fill-opacity="1" fill-rule="nonzero"/><path fill="#ffffff" d="M 248.539062 92.425781 C 240.007812 95.558594 235.414062 104.3125 237.820312 112.769531 C 238.988281 116.929688 243.070312 121.742188 246.863281 123.492188 C 250.4375 125.097656 257.949219 125.316406 261.375 123.929688 C 267.792969 121.230469 271.585938 115.398438 271.585938 108.46875 C 271.585938 96.65625 259.699219 88.339844 248.539062 92.425781 Z M 261.15625 101.25 C 265.824219 105.480469 265.824219 111.75 261.085938 115.6875 C 254.957031 120.867188 245.476562 117.21875 244.601562 109.269531 C 243.875 103.21875 248.175781 98.695312 254.738281 98.625 C 257.730469 98.625 258.679688 98.988281 261.15625 101.25 Z M 261.15625 101.25 " fill-opacity="1" fill-rule="nonzero"/></svg>