<svg xmlns="http://www.w3.org/2000/svg" viewBox="10785 425.11 134.283 38">
  <defs>
    <style>
      .cls-1 {
        fill: #f28f16;
      }
    </style>
  </defs>
  <g id="Group_1027" data-name="Group 1027" transform="translate(10785 425.11)">
    <g id="Group_266" data-name="Group 266" transform="translate(0 0)">
      <ellipse id="Ellipse_6" data-name="Ellipse 6" class="cls-1" cx="1.44" cy="2.407" rx="1.44" ry="2.407" transform="translate(24.077 14.716) rotate(-39.47)"/>
      <path id="Path_149" data-name="Path 149" class="cls-1" d="M31.451,6.867,21.013.841a7.811,7.811,0,0,0-7.051,0L3.528,6.867A7.828,7.828,0,0,0,0,12.976V25.029a7.814,7.814,0,0,0,3.528,6.1l10.439,6.026a7.811,7.811,0,0,0,7.051,0l10.439-6.026a7.828,7.828,0,0,0,3.528-6.109V12.971A7.825,7.825,0,0,0,31.451,6.867Zm-9.82,6.9c-.082.193-.174.73-.435,1.633-.087.077-.971-.7-1.121-.812s-.614-1.919-1.7-3.876a19.381,19.381,0,0,0-2.914-3.76S19.684,3.842,21.631,13.764Zm-8.3-7.525c4.63,2.32,6.887,9.757,6.906,10.439-4.345.947-4.833,2.962-5.949,3.426s-4.33-3.939-4.5-4.543C7.752,12.116,8.486,4.06,13.329,6.239Zm-.551,26.923a8.851,8.851,0,0,1-.551-6.094,23.668,23.668,0,0,0,3.049,2.677,31.3,31.3,0,0,0,4.272,2.03S17.765,33.762,12.778,33.162Zm8.327-2.4c-6.287-2.039-8.66-5.422-8.684-5.688a5.574,5.574,0,0,1,2.4-4.345,18.07,18.07,0,0,0,3.6,3.238c1.464.768,4.606,2.329,4.606,2.329S22.709,30.021,21.1,30.765Zm1.7-10.2c-.159.343-.034,3.8-.126,3.852A14.12,14.12,0,0,1,16.417,20s1.17-1.88,4.572-2.368c.826-.072.536.546,1.116,1.136A17.289,17.289,0,0,0,23.506,20,1.588,1.588,0,0,0,22.806,20.563Zm7.046-1.522c-.938,1.556-4.175,1.237-6.065.1s-2.218-4.234-1.281-5.79a1.819,1.819,0,0,1,1.517-.947l-.333-1.353s-.3-.865.382-.938c.159-.019,3.257-.208,3.257-.208s.5.072.536.464a.687.687,0,0,1-.333.609,27.039,27.039,0,0,0-2.793.208c-.174.1.256,1.155.338,1.348.053.014.106.029.164.048a3.343,3.343,0,0,1,1.658-.4c.246.077,2.281.609,2.281.609a.568.568,0,0,1,.179.594.432.432,0,0,1-.449.372l-2.218-.59-.019.034q.254.138.507.29C29.064,14.634,30.785,17.48,29.852,19.041Z" transform="translate(0 0)"/>
    </g>
    <g id="Group_267" data-name="Group 267" transform="translate(39.039 6.848)">
      <path id="Path_150" data-name="Path 150" class="cls-1" d="M810.521,149.8a17.594,17.594,0,0,1,2.015-.425,13.745,13.745,0,0,1,2.054-.155,12.743,12.743,0,0,1,3.76.561,9.063,9.063,0,0,1,3.238,1.764,8.676,8.676,0,0,1,2.267,3.064,10.617,10.617,0,0,1,.855,4.461,10.861,10.861,0,0,1-.7,3.977,8.759,8.759,0,0,1-2.035,3.122,9.345,9.345,0,0,1-3.238,2.054,11.675,11.675,0,0,1-4.267.739,22.309,22.309,0,0,1-6.669-1.049V141.7h2.716v8.1Zm11.367,9.308a7.4,7.4,0,0,0-2.039-5.6,7.582,7.582,0,0,0-5.485-1.957,9.222,9.222,0,0,0-1.919.213,18.647,18.647,0,0,0-1.919.522v13.73a10.858,10.858,0,0,0,2.054.488,16.414,16.414,0,0,0,2.136.135,6.775,6.775,0,0,0,5.292-2.073A7.849,7.849,0,0,0,821.887,159.112Z" transform="translate(-807.8 -141.7)"/>
      <path id="Path_151" data-name="Path 151" class="cls-1" d="M1206.56,314.855a9.133,9.133,0,0,1-3.142,2.233,11.035,11.035,0,0,1-4.306.754,9.723,9.723,0,0,1-4.074-.8,8.283,8.283,0,0,1-2.909-2.151,9.094,9.094,0,0,1-1.745-3.1,11.618,11.618,0,0,1-.584-3.683,12.819,12.819,0,0,1,.7-4.441,8.824,8.824,0,0,1,1.9-3.122,7.671,7.671,0,0,1,2.789-1.846,9.46,9.46,0,0,1,3.373-.6q4.269,0,6.438,2.619t2.092,7.621h-14.542a7.877,7.877,0,0,0,1.9,5.239,6.249,6.249,0,0,0,4.847,1.938,8.3,8.3,0,0,0,3.1-.561,6.814,6.814,0,0,0,2.523-1.8Zm-2.17-8.8a6.845,6.845,0,0,0-.367-2.252,5.1,5.1,0,0,0-1.049-1.783,4.946,4.946,0,0,0-1.764-1.184,7.432,7.432,0,0,0-5.065,0,4.539,4.539,0,0,0-1.687,1.145,7.721,7.721,0,0,0-1.145,1.764,7.333,7.333,0,0,0-.682,2.305h11.758Z" transform="translate(-1171.339 -290.542)"/>
    </g>
    <g id="Group_268" data-name="Group 268" transform="translate(76.43 6.848)">
      <path id="Path_152" data-name="Path 152" class="cls-1" d="M1581.5,168.846V141.7h10.782a7.376,7.376,0,0,1,2.948.6,7.566,7.566,0,0,1,2.426,1.648,7.938,7.938,0,0,1,1.629,2.445,7.382,7.382,0,0,1,.6,2.948,7.045,7.045,0,0,1-.522,2.653,8.347,8.347,0,0,1-1.377,2.305,7.637,7.637,0,0,1,2.483,2.793,7.911,7.911,0,0,1,.894,3.726,7.733,7.733,0,0,1-.642,3.141,8.006,8.006,0,0,1-1.745,2.557,8.129,8.129,0,0,1-5.722,2.325H1581.5Zm4.19-22.96v6.824h6.63a3.383,3.383,0,0,0,3.417-3.417,3.259,3.259,0,0,0-.991-2.441,3.328,3.328,0,0,0-2.426-.971h-6.63Zm0,18.77h7.6a3.455,3.455,0,0,0,1.532-.348,4.471,4.471,0,0,0,1.261-.909,4.215,4.215,0,0,0,1.16-2.89,3.264,3.264,0,0,0-1.164-2.619,4.162,4.162,0,0,0-2.794-.991h-7.6v7.757Z" transform="translate(-1581.5 -141.7)"/>
      <path id="Path_153" data-name="Path 153" class="cls-1" d="M2041.16,314.855a8.733,8.733,0,0,1-3.1,2.233,11.039,11.039,0,0,1-4.306.754,9.819,9.819,0,0,1-4.113-.8,8.284,8.284,0,0,1-2.909-2.151,9.088,9.088,0,0,1-1.745-3.1,11.612,11.612,0,0,1-.585-3.683,12.813,12.813,0,0,1,.7-4.441,8.7,8.7,0,0,1,1.919-3.122,7.8,7.8,0,0,1,2.813-1.846,9.554,9.554,0,0,1,3.412-.6,7.645,7.645,0,0,1,6.457,2.793q2.153,2.791,2.151,8.143H2028.44a6.226,6.226,0,0,0,1.725,3.823,5.142,5.142,0,0,0,3.745,1.377,6.367,6.367,0,0,0,2.677-.585,8.026,8.026,0,0,0,2.522-1.938l2.479,2.639Zm-7.916-13.3a4.3,4.3,0,0,0-3.2,1.087,5.688,5.688,0,0,0-1.455,2.832h9.231a4.573,4.573,0,0,0-1.339-2.793A4.4,4.4,0,0,0,2033.244,301.555Z" transform="translate(-2002.995 -290.542)"/>
      <path id="Path_154" data-name="Path 154" class="cls-1" d="M2434.36,314.855a8.739,8.739,0,0,1-3.1,2.233,11.04,11.04,0,0,1-4.306.754,9.818,9.818,0,0,1-4.113-.8,8.276,8.276,0,0,1-2.909-2.151,9.092,9.092,0,0,1-1.745-3.1,11.618,11.618,0,0,1-.584-3.683,12.813,12.813,0,0,1,.7-4.441,8.708,8.708,0,0,1,1.918-3.122,7.8,7.8,0,0,1,2.813-1.846,9.558,9.558,0,0,1,3.412-.6q4.307,0,6.456,2.793t2.151,8.143H2421.63a6.227,6.227,0,0,0,1.725,3.823,5.142,5.142,0,0,0,3.745,1.377,6.367,6.367,0,0,0,2.678-.585,8.037,8.037,0,0,0,2.523-1.938l2.479,2.639Zm-7.917-13.3a4.3,4.3,0,0,0-3.2,1.087,5.686,5.686,0,0,0-1.455,2.832h9.231a4.573,4.573,0,0,0-1.339-2.793A4.4,4.4,0,0,0,2426.443,301.555Z" transform="translate(-2377.193 -290.542)"/>
    </g>
  </g>
</svg>
