<svg xmlns="http://www.w3.org/2000/svg" xmlns:xlink="http://www.w3.org/1999/xlink" width="1024" viewBox="0 0 768 767.999994" height="1024" preserveAspectRatio="xMidYMid meet"><defs><clipPath id="eaa7472a98"><path d="M 529 300.90625 L 695 300.90625 L 695 466 L 529 466 Z M 529 300.90625 " clip-rule="nonzero"></path></clipPath></defs><rect x="-76.8" width="921.6" fill="#ffffff" y="-76.799999" height="921.599993" fill-opacity="1"></rect><rect x="-76.8" width="921.6" fill="#0a66c2" y="-76.799999" height="921.599993" fill-opacity="1"></rect><path fill="#ffffff" d="M 714.683594 456.359375 C 715.105469 456.363281 715.511719 456.285156 715.902344 456.121094 C 716.292969 455.957031 716.632812 455.71875 716.921875 455.414062 C 717.214844 455.109375 717.433594 454.757812 717.578125 454.359375 C 717.726562 453.964844 717.785156 453.554688 717.761719 453.132812 C 717.761719 450.84375 716.378906 449.75 713.546875 449.75 L 708.96875 449.75 L 708.96875 461.734375 L 710.691406 461.734375 L 710.691406 456.511719 L 712.804688 456.511719 L 712.855469 456.574219 L 716.140625 461.734375 L 717.980469 461.734375 L 714.445312 456.394531 Z M 712.691406 455.160156 L 710.695312 455.160156 L 710.695312 451.105469 L 713.226562 451.105469 C 714.535156 451.105469 716.023438 451.320312 716.023438 453.03125 C 716.023438 455.003906 714.515625 455.160156 712.683594 455.160156 " fill-opacity="1" fill-rule="nonzero"></path><path fill="#ffffff" d="M 43.742188 325.292969 L 69.164062 325.292969 L 69.164062 417.890625 L 116.226562 417.890625 L 116.226562 441.351562 L 43.742188 441.351562 Z M 43.742188 325.292969 " fill-opacity="1" fill-rule="nonzero"></path><path fill="#ffffff" d="M 127.464844 362.660156 L 151.886719 362.660156 L 151.886719 441.308594 L 127.464844 441.308594 Z M 139.675781 323.5625 C 140.605469 323.5625 141.527344 323.652344 142.4375 323.832031 C 143.351562 324.015625 144.238281 324.285156 145.097656 324.640625 C 145.957031 324.996094 146.773438 325.433594 147.546875 325.949219 C 148.320312 326.464844 149.035156 327.054688 149.691406 327.710938 C 150.347656 328.371094 150.9375 329.085938 151.453125 329.859375 C 151.96875 330.632812 152.40625 331.449219 152.761719 332.308594 C 153.117188 333.167969 153.386719 334.054688 153.566406 334.964844 C 153.75 335.878906 153.839844 336.800781 153.839844 337.730469 C 153.839844 338.660156 153.75 339.582031 153.566406 340.492188 C 153.386719 341.40625 153.117188 342.292969 152.761719 343.152344 C 152.40625 344.011719 151.96875 344.828125 151.453125 345.601562 C 150.933594 346.371094 150.347656 347.089844 149.6875 347.746094 C 149.03125 348.402344 148.316406 348.992188 147.542969 349.507812 C 146.769531 350.023438 145.953125 350.460938 145.09375 350.816406 C 144.234375 351.171875 143.347656 351.441406 142.4375 351.621094 C 141.523438 351.804688 140.601562 351.894531 139.671875 351.894531 C 138.742188 351.894531 137.820312 351.804688 136.90625 351.621094 C 135.996094 351.441406 135.109375 351.171875 134.25 350.816406 C 133.390625 350.460938 132.574219 350.023438 131.800781 349.507812 C 131.027344 348.988281 130.3125 348.402344 129.65625 347.746094 C 128.996094 347.085938 128.410156 346.371094 127.894531 345.597656 C 127.375 344.824219 126.941406 344.007812 126.582031 343.148438 C 126.226562 342.289062 125.960938 341.402344 125.777344 340.492188 C 125.597656 339.578125 125.503906 338.65625 125.503906 337.726562 C 125.503906 336.796875 125.597656 335.875 125.777344 334.964844 C 125.960938 334.050781 126.226562 333.164062 126.585938 332.304688 C 126.941406 331.445312 127.375 330.628906 127.894531 329.855469 C 128.410156 329.082031 129 328.367188 129.65625 327.710938 C 130.3125 327.050781 131.03125 326.464844 131.804688 325.949219 C 132.578125 325.429688 133.394531 324.996094 134.253906 324.636719 C 135.113281 324.28125 136 324.015625 136.910156 323.832031 C 137.824219 323.652344 138.746094 323.558594 139.675781 323.5625 " fill-opacity="1" fill-rule="nonzero"></path><path fill="#ffffff" d="M 254.042969 325.273438 L 278.464844 325.273438 L 278.464844 394.636719 L 306.144531 362.625 L 336.085938 362.625 L 304.03125 399.035156 L 335.410156 441.339844 L 304.71875 441.339844 L 278.792969 402.464844 L 278.472656 402.464844 L 278.472656 441.335938 L 254.050781 441.335938 Z M 254.042969 325.273438 " fill-opacity="1" fill-rule="nonzero"></path><path fill="#ffffff" d="M 165.425781 362.667969 L 188.878906 362.667969 L 188.878906 373.417969 L 189.214844 373.417969 C 189.796875 372.417969 190.445312 371.460938 191.15625 370.550781 C 191.867188 369.640625 192.636719 368.78125 193.464844 367.972656 C 194.292969 367.167969 195.171875 366.417969 196.101562 365.730469 C 197.03125 365.042969 198.003906 364.421875 199.015625 363.863281 C 200.03125 363.308594 201.078125 362.820312 202.15625 362.40625 C 203.234375 361.988281 204.335938 361.648438 205.464844 361.382812 C 206.589844 361.117188 207.726562 360.925781 208.878906 360.816406 C 210.027344 360.703125 211.179688 360.667969 212.335938 360.710938 C 237.101562 360.710938 241.660156 377.003906 241.660156 398.171875 L 241.660156 441.304688 L 217.238281 441.304688 L 217.238281 403.066406 C 217.238281 393.9375 217.070312 382.207031 204.519531 382.207031 C 191.824219 382.207031 189.867188 392.144531 189.867188 402.402344 L 189.867188 441.292969 L 165.445312 441.292969 Z M 165.425781 362.667969 " fill-opacity="1" fill-rule="nonzero"></path><path fill="#ffffff" d="M 387.515625 392.835938 C 387.527344 392.34375 387.515625 391.847656 387.476562 391.355469 C 387.4375 390.863281 387.375 390.375 387.285156 389.886719 C 387.199219 389.402344 387.085938 388.921875 386.949219 388.445312 C 386.8125 387.972656 386.652344 387.503906 386.46875 387.046875 C 386.285156 386.585938 386.078125 386.136719 385.851562 385.699219 C 385.621094 385.261719 385.371094 384.835938 385.097656 384.425781 C 384.824219 384.011719 384.535156 383.613281 384.222656 383.230469 C 383.910156 382.847656 383.578125 382.484375 383.226562 382.132812 C 382.878906 381.785156 382.511719 381.453125 382.128906 381.140625 C 381.746094 380.828125 381.347656 380.535156 380.933594 380.265625 C 380.523438 379.992188 380.097656 379.742188 379.660156 379.515625 C 379.222656 379.285156 378.773438 379.078125 378.3125 378.894531 C 377.855469 378.710938 377.386719 378.550781 376.914062 378.414062 C 376.4375 378.28125 375.957031 378.167969 375.472656 378.078125 C 374.984375 377.992188 374.496094 377.929688 374.003906 377.890625 C 373.507812 377.855469 373.015625 377.839844 372.523438 377.851562 C 371.464844 377.789062 370.414062 377.824219 369.363281 377.964844 C 368.3125 378.101562 367.289062 378.34375 366.285156 378.683594 C 365.28125 379.019531 364.320312 379.453125 363.402344 379.980469 C 362.484375 380.507812 361.625 381.117188 360.828125 381.8125 C 360.027344 382.507812 359.300781 383.269531 358.652344 384.105469 C 358 384.941406 357.4375 385.832031 356.960938 386.777344 C 356.484375 387.722656 356.101562 388.703125 355.816406 389.722656 C 355.53125 390.742188 355.347656 391.78125 355.265625 392.835938 Z M 408.203125 427.6875 C 406.175781 430.148438 403.898438 432.355469 401.378906 434.3125 C 398.859375 436.265625 396.15625 437.917969 393.265625 439.273438 C 390.378906 440.625 387.378906 441.644531 384.261719 442.332031 C 381.148438 443.015625 377.996094 443.351562 374.808594 443.335938 C 350.386719 443.335938 330.832031 427.035156 330.832031 401.792969 C 330.832031 376.546875 350.382812 360.253906 374.808594 360.253906 C 397.632812 360.253906 411.949219 376.535156 411.949219 401.792969 L 411.949219 409.449219 L 355.265625 409.449219 C 355.441406 410.523438 355.710938 411.578125 356.074219 412.605469 C 356.4375 413.636719 356.890625 414.621094 357.429688 415.570312 C 357.972656 416.519531 358.59375 417.410156 359.292969 418.246094 C 359.996094 419.082031 360.765625 419.847656 361.605469 420.546875 C 362.441406 421.242188 363.335938 421.859375 364.285156 422.398438 C 365.234375 422.9375 366.226562 423.382812 367.253906 423.742188 C 368.285156 424.105469 369.339844 424.367188 370.417969 424.539062 C 371.496094 424.710938 372.578125 424.785156 373.667969 424.761719 C 375.40625 424.75 377.117188 424.523438 378.800781 424.085938 C 380.480469 423.648438 382.082031 423.007812 383.605469 422.167969 C 385.125 421.328125 386.523438 420.316406 387.789062 419.128906 C 389.058594 417.941406 390.160156 416.613281 391.097656 415.148438 Z M 408.203125 427.6875 " fill-opacity="1" fill-rule="nonzero"></path><path fill="#ffffff" d="M 462.851562 381.671875 C 450.640625 381.671875 443.3125 389.824219 443.3125 401.703125 C 443.3125 413.585938 450.636719 421.746094 462.851562 421.746094 C 475.066406 421.746094 482.40625 413.605469 482.40625 401.703125 C 482.40625 389.804688 475.078125 381.671875 462.851562 381.671875 M 504.890625 441.292969 L 482.40625 441.292969 L 482.40625 430.863281 L 482.074219 430.863281 C 480.664062 432.757812 479.054688 434.472656 477.25 435.996094 C 475.445312 437.523438 473.488281 438.820312 471.382812 439.894531 C 469.277344 440.96875 467.078125 441.789062 464.78125 442.355469 C 462.488281 442.921875 460.15625 443.21875 457.792969 443.246094 C 434.328125 443.246094 418.871094 426.3125 418.871094 402.363281 C 418.871094 380.367188 432.550781 360.171875 455.035156 360.171875 C 465.144531 360.171875 474.585938 362.9375 480.121094 370.601562 L 480.441406 370.601562 L 480.441406 325.269531 L 504.886719 325.269531 Z M 504.890625 441.292969 " fill-opacity="1" fill-rule="nonzero"></path><g clip-path="url(#eaa7472a98)"><path fill="#ffffff" d="M 669.757812 441.339844 L 645.335938 441.339844 L 645.335938 403.09375 C 645.335938 393.972656 645.171875 382.234375 632.632812 382.234375 C 619.914062 382.234375 617.96875 392.171875 617.96875 402.429688 L 617.96875 441.335938 L 593.546875 441.335938 L 593.546875 362.6875 L 616.992188 362.6875 L 616.992188 373.4375 L 617.320312 373.4375 C 617.90625 372.4375 618.550781 371.484375 619.265625 370.574219 C 619.976562 369.664062 620.75 368.804688 621.578125 367.996094 C 622.40625 367.191406 623.285156 366.441406 624.214844 365.753906 C 625.144531 365.066406 626.117188 364.445312 627.128906 363.886719 C 628.144531 363.332031 629.191406 362.84375 630.269531 362.429688 C 631.351562 362.015625 632.453125 361.671875 633.578125 361.40625 C 634.703125 361.140625 635.839844 360.949219 636.992188 360.835938 C 638.144531 360.722656 639.296875 360.6875 640.453125 360.730469 C 665.203125 360.730469 669.769531 377.011719 669.769531 398.195312 Z M 565.992188 351.9375 C 565.0625 351.9375 564.140625 351.847656 563.226562 351.667969 C 562.3125 351.484375 561.429688 351.214844 560.566406 350.859375 C 559.707031 350.503906 558.890625 350.066406 558.117188 349.550781 C 557.34375 349.035156 556.628906 348.445312 555.96875 347.789062 C 555.3125 347.132812 554.722656 346.414062 554.207031 345.640625 C 553.691406 344.867188 553.253906 344.050781 552.898438 343.191406 C 552.539062 342.332031 552.273438 341.445312 552.089844 340.535156 C 551.90625 339.621094 551.816406 338.699219 551.816406 337.769531 C 551.816406 336.835938 551.90625 335.917969 552.089844 335.003906 C 552.269531 334.089844 552.539062 333.203125 552.894531 332.34375 C 553.25 331.484375 553.6875 330.667969 554.203125 329.894531 C 554.722656 329.121094 555.308594 328.40625 555.964844 327.746094 C 556.625 327.089844 557.339844 326.5 558.113281 325.984375 C 558.886719 325.464844 559.703125 325.03125 560.5625 324.671875 C 561.421875 324.316406 562.308594 324.046875 563.222656 323.867188 C 564.132812 323.683594 565.054688 323.59375 565.988281 323.59375 C 566.917969 323.59375 567.839844 323.683594 568.75 323.867188 C 569.664062 324.046875 570.550781 324.316406 571.410156 324.671875 C 572.269531 325.027344 573.085938 325.464844 573.859375 325.980469 C 574.632812 326.496094 575.351562 327.085938 576.007812 327.742188 C 576.667969 328.402344 577.253906 329.117188 577.769531 329.890625 C 578.289062 330.664062 578.726562 331.480469 579.082031 332.339844 C 579.4375 333.199219 579.707031 334.085938 579.886719 335 C 580.070312 335.910156 580.160156 336.832031 580.160156 337.761719 C 580.160156 338.695312 580.070312 339.617188 579.890625 340.527344 C 579.707031 341.441406 579.441406 342.328125 579.082031 343.1875 C 578.726562 344.046875 578.292969 344.863281 577.773438 345.636719 C 577.257812 346.410156 576.671875 347.128906 576.011719 347.785156 C 575.355469 348.445312 574.640625 349.03125 573.863281 349.546875 C 573.089844 350.066406 572.273438 350.5 571.414062 350.859375 C 570.554688 351.214844 569.667969 351.484375 568.757812 351.664062 C 567.84375 351.847656 566.921875 351.9375 565.992188 351.9375 M 578.203125 441.339844 L 553.753906 441.339844 L 553.753906 362.6875 L 578.203125 362.6875 Z M 681.933594 300.914062 L 541.484375 300.914062 C 540.695312 300.90625 539.910156 300.972656 539.136719 301.117188 C 538.359375 301.265625 537.605469 301.484375 536.875 301.777344 C 536.140625 302.070312 535.445312 302.433594 534.78125 302.863281 C 534.121094 303.292969 533.507812 303.785156 532.945312 304.335938 C 532.378906 304.890625 531.875 305.492188 531.425781 306.140625 C 530.980469 306.792969 530.601562 307.480469 530.292969 308.207031 C 529.980469 308.933594 529.742188 309.679688 529.582031 310.453125 C 529.417969 311.226562 529.332031 312.003906 529.320312 312.792969 L 529.320312 453.828125 C 529.332031 454.617188 529.417969 455.398438 529.578125 456.171875 C 529.742188 456.941406 529.980469 457.691406 530.289062 458.417969 C 530.601562 459.144531 530.980469 459.832031 531.425781 460.484375 C 531.871094 461.136719 532.378906 461.738281 532.941406 462.289062 C 533.507812 462.84375 534.121094 463.332031 534.78125 463.765625 C 535.441406 464.195312 536.140625 464.558594 536.871094 464.855469 C 537.605469 465.148438 538.359375 465.367188 539.136719 465.511719 C 539.910156 465.660156 540.695312 465.726562 541.484375 465.71875 L 681.933594 465.71875 C 682.722656 465.730469 683.507812 465.664062 684.285156 465.519531 C 685.066406 465.375 685.820312 465.152344 686.554688 464.859375 C 687.289062 464.566406 687.988281 464.207031 688.652344 463.773438 C 689.316406 463.34375 689.933594 462.851562 690.5 462.300781 C 691.066406 461.746094 691.574219 461.144531 692.023438 460.492188 C 692.46875 459.839844 692.851562 459.152344 693.164062 458.425781 C 693.476562 457.699219 693.714844 456.949219 693.878906 456.175781 C 694.042969 455.402344 694.132812 454.617188 694.144531 453.828125 L 694.144531 312.785156 C 694.132812 311.992188 694.042969 311.210938 693.878906 310.4375 C 693.714844 309.664062 693.476562 308.914062 693.160156 308.1875 C 692.847656 307.460938 692.46875 306.773438 692.019531 306.121094 C 691.570312 305.46875 691.0625 304.867188 690.496094 304.316406 C 689.929688 303.765625 689.316406 303.273438 688.652344 302.84375 C 687.988281 302.414062 687.289062 302.050781 686.554688 301.761719 C 685.820312 301.46875 685.0625 301.25 684.285156 301.105469 C 683.507812 300.960938 682.722656 300.894531 681.933594 300.90625 " fill-opacity="1" fill-rule="nonzero"></path></g><path fill="#ffffff" d="M 712.898438 444.410156 C 712.410156 444.414062 711.921875 444.449219 711.4375 444.519531 C 710.953125 444.585938 710.476562 444.6875 710.003906 444.816406 C 709.53125 444.949219 709.070312 445.109375 708.621094 445.300781 C 708.167969 445.492188 707.734375 445.710938 707.3125 445.960938 C 706.890625 446.207031 706.484375 446.484375 706.097656 446.785156 C 705.714844 447.085938 705.347656 447.410156 705.003906 447.757812 C 704.660156 448.105469 704.339844 448.476562 704.046875 448.867188 C 703.75 449.257812 703.480469 449.664062 703.238281 450.089844 C 702.996094 450.515625 702.785156 450.957031 702.597656 451.410156 C 702.414062 451.863281 702.261719 452.324219 702.136719 452.800781 C 702.011719 453.273438 701.917969 453.753906 701.859375 454.238281 C 701.796875 454.722656 701.765625 455.210938 701.769531 455.703125 C 701.773438 456.191406 701.804688 456.679688 701.871094 457.164062 C 701.9375 457.648438 702.035156 458.128906 702.164062 458.601562 C 702.292969 459.074219 702.453125 459.535156 702.640625 459.984375 C 702.828125 460.4375 703.046875 460.875 703.292969 461.296875 C 703.539062 461.722656 703.8125 462.125 704.109375 462.515625 C 704.410156 462.902344 704.734375 463.269531 705.078125 463.613281 C 705.425781 463.960938 705.792969 464.28125 706.183594 464.578125 C 706.574219 464.875 706.980469 465.144531 707.402344 465.390625 C 707.828125 465.632812 708.265625 465.847656 708.71875 466.035156 C 709.171875 466.222656 709.636719 466.378906 710.109375 466.507812 C 710.582031 466.632812 711.058594 466.726562 711.546875 466.792969 C 712.03125 466.855469 712.519531 466.886719 713.007812 466.886719 C 713.496094 466.886719 713.984375 466.855469 714.472656 466.792969 C 714.957031 466.726562 715.433594 466.632812 715.910156 466.507812 C 716.382812 466.378906 716.84375 466.222656 717.296875 466.035156 C 717.75 465.851562 718.1875 465.632812 718.613281 465.390625 C 719.035156 465.144531 719.441406 464.875 719.832031 464.578125 C 720.222656 464.28125 720.589844 463.960938 720.9375 463.613281 C 721.28125 463.269531 721.605469 462.902344 721.90625 462.515625 C 722.203125 462.128906 722.476562 461.722656 722.722656 461.296875 C 722.96875 460.875 723.1875 460.4375 723.375 459.988281 C 723.566406 459.535156 723.722656 459.074219 723.851562 458.601562 C 723.980469 458.128906 724.078125 457.648438 724.144531 457.164062 C 724.210938 456.679688 724.246094 456.191406 724.246094 455.703125 C 724.25 455.210938 724.21875 454.726562 724.160156 454.238281 C 724.097656 453.753906 724.003906 453.273438 723.878906 452.800781 C 723.757812 452.328125 723.601562 451.863281 723.417969 451.410156 C 723.234375 450.957031 723.019531 450.515625 722.777344 450.089844 C 722.535156 449.664062 722.265625 449.257812 721.972656 448.867188 C 721.675781 448.476562 721.355469 448.105469 721.011719 447.757812 C 720.667969 447.410156 720.304688 447.085938 719.917969 446.785156 C 719.53125 446.484375 719.128906 446.207031 718.707031 445.960938 C 718.285156 445.710938 717.847656 445.492188 717.398438 445.300781 C 716.945312 445.109375 716.484375 444.949219 716.011719 444.816406 C 715.542969 444.6875 715.0625 444.585938 714.578125 444.519531 C 714.09375 444.449219 713.605469 444.414062 713.117188 444.410156 L 712.898438 444.410156 M 712.898438 465.601562 C 712.253906 465.609375 711.609375 465.558594 710.976562 465.441406 C 710.335938 465.328125 709.71875 465.148438 709.117188 464.914062 C 708.515625 464.675781 707.941406 464.378906 707.398438 464.03125 C 706.855469 463.679688 706.351562 463.28125 705.882812 462.828125 C 705.417969 462.378906 705.003906 461.890625 704.632812 461.355469 C 704.265625 460.824219 703.953125 460.261719 703.695312 459.667969 C 703.4375 459.074219 703.242188 458.460938 703.105469 457.828125 C 702.96875 457.195312 702.894531 456.558594 702.882812 455.910156 C 702.871094 455.261719 702.925781 454.621094 703.039062 453.984375 C 703.15625 453.347656 703.332031 452.730469 703.570312 452.125 C 703.808594 451.523438 704.101562 450.953125 704.453125 450.40625 C 704.804688 449.863281 705.203125 449.359375 705.652344 448.894531 C 706.101562 448.429688 706.59375 448.011719 707.125 447.644531 C 707.65625 447.277344 708.21875 446.960938 708.8125 446.707031 C 709.40625 446.449219 710.019531 446.25 710.652344 446.113281 C 711.285156 445.976562 711.925781 445.902344 712.574219 445.890625 C 713.21875 445.882812 713.859375 445.933594 714.496094 446.050781 C 715.132812 446.164062 715.753906 446.34375 716.355469 446.578125 C 716.957031 446.816406 717.53125 447.113281 718.074219 447.460938 C 718.617188 447.8125 719.121094 448.210938 719.585938 448.664062 C 720.050781 449.113281 720.46875 449.601562 720.839844 450.136719 C 721.207031 450.667969 721.519531 451.230469 721.777344 451.824219 C 722.035156 452.417969 722.230469 453.03125 722.367188 453.664062 C 722.503906 454.296875 722.578125 454.933594 722.589844 455.582031 C 722.589844 455.636719 722.589844 455.691406 722.589844 455.746094 C 722.601562 456.378906 722.554688 457.007812 722.445312 457.632812 C 722.335938 458.253906 722.164062 458.863281 721.933594 459.453125 C 721.707031 460.042969 721.421875 460.605469 721.082031 461.136719 C 720.738281 461.671875 720.351562 462.167969 719.914062 462.625 C 719.476562 463.082031 718.996094 463.492188 718.476562 463.855469 C 717.957031 464.21875 717.410156 464.527344 716.832031 464.78125 C 716.25 465.035156 715.652344 465.230469 715.035156 465.367188 C 714.414062 465.507812 713.789062 465.582031 713.15625 465.59375 L 712.902344 465.59375 " fill-opacity="1" fill-rule="nonzero"></path></svg>